<svg width="25" height="25" viewBox="0 0 25 25" fill="none" xmlns="http://www.w3.org/2000/svg">
<path d="M12.5 25C19.4036 25 25 19.4036 25 12.5C25 5.59644 19.4036 0 12.5 0C5.59644 0 0 5.59644 0 12.5C0 19.4036 5.59644 25 12.5 25Z" fill="white"/>
<path d="M16.2958 14.8557C15.8193 14.3853 15.2245 14.3853 14.751 14.8557C14.3899 15.2138 14.0287 15.5719 13.6737 15.9361C13.5765 16.0363 13.4946 16.0575 13.3762 15.9908C13.1426 15.8633 12.8937 15.7601 12.6691 15.6205C11.6221 14.9619 10.745 14.1152 9.96811 13.1623C9.58268 12.6888 9.23975 12.182 8.99999 11.6115C8.95144 11.4962 8.96054 11.4203 9.05462 11.3262C9.41577 10.9772 9.76781 10.6191 10.1229 10.261C10.6176 9.76326 10.6176 9.18057 10.1199 8.67982C9.83761 8.39454 9.55537 8.11534 9.27313 7.83006C8.98178 7.53871 8.69347 7.24433 8.39909 6.95602C7.92262 6.49169 7.32779 6.49169 6.85436 6.95906C6.49018 7.31717 6.14117 7.68439 5.77092 8.03643C5.42798 8.36116 5.255 8.75872 5.21858 9.22305C5.16091 9.97873 5.34604 10.6919 5.60704 11.3869C6.14117 12.8254 6.95451 14.1031 7.94083 15.2745C9.27313 16.8587 10.8634 18.1121 12.7237 19.0165C13.5614 19.4232 14.4293 19.7358 15.3732 19.7873C16.0226 19.8238 16.5871 19.6599 17.0393 19.1531C17.3489 18.8071 17.6979 18.4915 18.0256 18.1607C18.5112 17.669 18.5142 17.0742 18.0317 16.5886C17.4551 16.009 16.8754 15.4323 16.2958 14.8557Z" fill="#31348C"/>
<path d="M15.5805 11.8863C15.6776 12.1844 15.967 12.3941 16.2761 12.3414C16.5855 12.2885 16.7967 11.9934 16.7092 11.692C16.4745 10.8827 16.04 10.1499 15.4373 9.54468C14.7931 8.90045 14.0081 8.45292 13.1421 8.23116C12.8379 8.15326 12.5492 8.37336 12.5057 8.68434C12.4621 8.99529 12.6806 9.27854 12.9821 9.36649C13.6036 9.54783 14.1682 9.88095 14.6361 10.3489C15.0718 10.7846 15.3925 11.3088 15.5805 11.8863Z" fill="#31348C"/>
<path d="M17.4674 7.56912C16.3095 6.41125 14.8766 5.63556 13.2928 5.30526C12.9855 5.24118 12.6977 5.4599 12.6541 5.77076C12.6105 6.08179 12.8281 6.36697 13.1348 6.43457C14.473 6.72952 15.6845 7.39433 16.6662 8.37335C17.5906 9.29777 18.2376 10.4349 18.5547 11.6878C18.6316 11.9916 18.9226 12.2 19.2315 12.1473C19.5409 12.0945 19.7507 11.7999 19.6766 11.4948C19.3157 10.0094 18.5586 8.66307 17.4674 7.56912Z" fill="#31348C"/>
</svg>
