<svg width="55" height="75" viewBox="0 0 55 75" fill="none" xmlns="http://www.w3.org/2000/svg">
<path fill-rule="evenodd" clip-rule="evenodd" d="M1.2931 41.3789C1.54886 41.3789 1.79886 41.4547 2.01151 41.5968C2.22416 41.7389 2.3899 41.9409 2.48778 42.1772C2.58565 42.4134 2.61126 42.6734 2.56136 42.9243C2.51147 43.1751 2.38831 43.4055 2.20747 43.5864C2.02662 43.7672 1.79621 43.8904 1.54538 43.9403C1.29454 43.9902 1.03454 43.9646 0.798254 43.8667C0.56197 43.7688 0.360015 43.6031 0.217927 43.3904C0.0758393 43.1778 0 42.9278 0 42.672C0 42.3291 0.136238 42.0002 0.378742 41.7576C0.621246 41.5151 0.950151 41.3789 1.2931 41.3789Z" fill="#F5FAFF"/>
<path d="M28.4483 72.4136H41.3793V68.5342C41.3844 68.279 41.4557 68.0295 41.5862 67.8101L51.7242 52.6291V33.8532C51.1774 34.0378 50.6814 34.3478 50.2759 34.7584C49.5482 35.4852 49.1389 36.4712 49.138 37.4998V47.1204C49.141 47.3153 49.0981 47.5082 49.0127 47.6834C48.9273 47.8587 48.8019 48.0113 48.6466 48.1291L35.0948 61.6808C34.9746 61.802 34.8316 61.8982 34.674 61.9638C34.5165 62.0295 34.3474 62.0633 34.1767 62.0633C34.006 62.0633 33.837 62.0295 33.6794 61.9638C33.5219 61.8982 33.3788 61.802 33.2586 61.6808C33.1349 61.5647 33.0363 61.4245 32.9689 61.2688C32.9015 61.1131 32.8668 60.9453 32.8668 60.7756C32.8668 60.606 32.9015 60.4381 32.9689 60.2824C33.0363 60.1268 33.1349 59.9865 33.2586 59.8704L39.2586 53.8704C39.5062 53.6238 39.6457 53.2889 39.6466 52.9394C39.6486 52.7698 39.6152 52.6017 39.5484 52.4458C39.4816 52.2899 39.3829 52.1497 39.2586 52.0342C39.1425 51.9105 39.0023 51.8119 38.8466 51.7445C38.691 51.6772 38.5231 51.6424 38.3535 51.6424C38.1838 51.6424 38.016 51.6772 37.8603 51.7445C37.7046 51.8119 37.5644 51.9105 37.4483 52.0342L29.1983 60.2584C28.9586 60.5 28.769 60.7866 28.6403 61.1017C28.5116 61.4168 28.4463 61.7542 28.4483 62.0946V72.4136ZM12.4655 51.2584C12.6524 50.8643 12.9062 50.5055 13.2155 50.198C13.9462 49.4778 14.9309 49.0741 15.9569 49.0741C16.9829 49.0741 17.9676 49.4778 18.6983 50.198L26.9224 58.4222L27.1552 58.6549L27.3879 58.4222L35.6121 50.198C36.3428 49.4778 37.3275 49.0741 38.3535 49.0741C39.3794 49.0741 40.3642 49.4778 41.0948 50.198C41.4042 50.5055 41.658 50.8643 41.8448 51.2584L46.5517 46.5773V37.4998C46.5483 36.6497 46.7132 35.8074 47.0369 35.0215C47.3606 34.2355 47.8368 33.5214 48.4378 32.9203C49.0389 32.3193 49.753 31.8431 50.539 31.5194C51.325 31.1957 52.1672 31.0308 53.0173 31.0342C53.3602 31.0342 53.6891 31.1705 53.9316 31.413C54.1741 31.6555 54.3104 31.9844 54.3104 32.3273V53.017C54.309 53.2728 54.2374 53.5233 54.1035 53.7411L43.9655 68.9222V72.4136H45.2586C45.6016 72.4136 45.9305 72.5498 46.173 72.7923C46.4155 73.0348 46.5517 73.3637 46.5517 73.7067C46.5517 74.0496 46.4155 74.3785 46.173 74.621C45.9305 74.8635 45.6016 74.9998 45.2586 74.9998H9.05173C8.70877 74.9998 8.37987 74.8635 8.13736 74.621C7.89486 74.3785 7.75862 74.0496 7.75862 73.7067C7.75862 73.3637 7.89486 73.0348 8.13736 72.7923C8.37987 72.5498 8.70877 72.4136 9.05173 72.4136H10.3448V68.9222L0.206896 53.7411C0.0729201 53.5233 0.00135229 53.2728 0 53.017V47.8446C0 47.5016 0.136238 47.1727 0.378742 46.9302C0.621246 46.6877 0.950151 46.5515 1.2931 46.5515C1.63606 46.5515 1.96496 46.6877 2.20747 46.9302C2.44997 47.1727 2.58621 47.5016 2.58621 47.8446V52.6291L12.7241 67.8101C12.8546 68.0295 12.9259 68.279 12.931 68.5342V72.4136H25.8621V62.0687C25.864 61.7284 25.7988 61.391 25.6701 61.0759C25.5414 60.7608 25.3518 60.4742 25.1121 60.2325L16.8104 52.0342C16.6943 51.9105 16.554 51.8119 16.3984 51.7445C16.2427 51.6772 16.0748 51.6424 15.9052 51.6424C15.7355 51.6424 15.5677 51.6772 15.412 51.7445C15.2563 51.8119 15.1161 51.9105 15 52.0342C14.8758 52.1497 14.7771 52.2899 14.7103 52.4458C14.6435 52.6017 14.61 52.7698 14.6121 52.9394C14.6122 53.2639 14.7319 53.577 14.9483 53.8187L21 59.8704C21.1237 59.9865 21.2223 60.1268 21.2897 60.2824C21.3571 60.4381 21.3919 60.606 21.3919 60.7756C21.3919 60.9453 21.3571 61.1131 21.2897 61.2688C21.2223 61.4245 21.1237 61.5647 21 61.6808C20.8017 61.8677 20.5474 61.9842 20.2763 62.0123C20.0052 62.0403 19.7324 61.9783 19.5 61.836C19.3896 61.7914 19.2919 61.7204 19.2155 61.6291L5.61207 48.1032C5.47741 47.9766 5.3692 47.8246 5.29373 47.6559C5.21826 47.4872 5.17703 47.3052 5.17242 47.1204V37.4998C5.17151 36.4712 4.7622 35.4852 4.03448 34.7584C3.62896 34.3478 3.13298 34.0378 2.58621 33.8532V37.4998C2.58621 37.8427 2.44997 38.1716 2.20747 38.4141C1.96496 38.6566 1.63606 38.7929 1.2931 38.7929C0.950151 38.7929 0.621246 38.6566 0.378742 38.4141C0.136238 38.1716 0 37.8427 0 37.4998V32.3273C0 31.9844 0.136238 31.6555 0.378742 31.413C0.621246 31.1705 0.950151 31.0342 1.2931 31.0342C2.14313 31.0308 2.98541 31.1957 3.77139 31.5194C4.55737 31.8431 5.27148 32.3193 5.87254 32.9203C6.47361 33.5214 6.94972 34.2355 7.27343 35.0215C7.59714 35.8074 7.76204 36.6497 7.75862 37.4998V46.5773L12.4655 51.2584Z" fill="#F5FAFF"/>
<path d="M9.05243 25.8621H3.88002C3.53707 25.8621 3.20816 25.7259 2.96566 25.4833C2.72315 25.2408 2.58691 24.9119 2.58691 24.569C2.58691 24.226 2.72315 23.8971 2.96566 23.6546C3.20816 23.4121 3.53707 23.2759 3.88002 23.2759H9.05243C9.39539 23.2759 9.72429 23.4121 9.9668 23.6546C10.2093 23.8971 10.3455 24.226 10.3455 24.569C10.3455 24.9119 10.2093 25.2408 9.9668 25.4833C9.72429 25.7259 9.39539 25.8621 9.05243 25.8621Z" fill="#F5FAFF"/>
<path d="M14.3529 13.0605C14.1833 13.0626 14.0151 13.0292 13.8593 12.9623C13.7034 12.8955 13.5632 12.7968 13.4477 12.6726L9.77529 9.05192C9.65303 8.92965 9.55604 8.7845 9.48988 8.62475C9.42371 8.46501 9.38965 8.29379 9.38965 8.12088C9.38965 7.94797 9.42371 7.77676 9.48988 7.61701C9.55604 7.45726 9.65303 7.31211 9.77529 7.18985C9.89756 7.06758 10.0427 6.97059 10.2025 6.90443C10.3622 6.83826 10.5334 6.8042 10.7063 6.8042C10.8792 6.8042 11.0505 6.83826 11.2102 6.90443C11.3699 6.97059 11.5151 7.06758 11.6374 7.18985L15.2581 10.8623C15.3818 10.9784 15.4803 11.1186 15.5477 11.2743C15.6151 11.4299 15.6499 11.5978 15.6499 11.7674C15.6499 11.9371 15.6151 12.1049 15.5477 12.2606C15.4803 12.4163 15.3818 12.5565 15.2581 12.6726C15.1426 12.7968 15.0024 12.8955 14.8465 12.9623C14.6906 13.0292 14.5225 13.0626 14.3529 13.0605Z" fill="#F5FAFF"/>
<path d="M27.1554 7.75862C26.8125 7.75862 26.4835 7.62239 26.241 7.37988C25.9985 7.13738 25.8623 6.80847 25.8623 6.46552V1.2931C25.8623 0.950151 25.9985 0.621245 26.241 0.378741C26.4835 0.136237 26.8125 0 27.1554 0C27.4984 0 27.8273 0.136237 28.0698 0.378741C28.3123 0.621245 28.4485 0.950151 28.4485 1.2931V6.46552C28.4485 6.80847 28.3123 7.13738 28.0698 7.37988C27.8273 7.62239 27.4984 7.75862 27.1554 7.75862Z" fill="#F5FAFF"/>
<path d="M40.0861 13.0601C39.9165 13.0621 39.7483 13.0287 39.5925 12.9619C39.4366 12.8951 39.2964 12.7964 39.1809 12.6721C39.0572 12.556 38.9586 12.4158 38.8912 12.2601C38.8238 12.1045 38.7891 11.9366 38.7891 11.767C38.7891 11.5973 38.8238 11.4295 38.8912 11.2738C38.9586 11.1181 39.0572 10.9779 39.1809 10.8618L42.6723 7.18937C42.7929 7.06881 42.936 6.97317 43.0935 6.90792C43.2511 6.84267 43.4199 6.80908 43.5904 6.80908C43.7609 6.80908 43.9298 6.84267 44.0873 6.90792C44.2448 6.97317 44.3879 7.06881 44.5085 7.18937C44.6291 7.30994 44.7247 7.45307 44.79 7.6106C44.8552 7.76813 44.8888 7.93697 44.8888 8.10748C44.8888 8.27799 44.8552 8.44682 44.79 8.60435C44.7247 8.76188 44.6291 8.90501 44.5085 9.02558L40.862 12.6721C40.7465 12.7964 40.6063 12.8951 40.4504 12.9619C40.2945 13.0287 40.1264 13.0621 39.9568 13.0601H40.0861Z" fill="#F5FAFF"/>
<path d="M50.4313 25.8621H45.2589C44.916 25.8621 44.5871 25.7259 44.3446 25.4833C44.1021 25.2408 43.9658 24.9119 43.9658 24.569C43.9658 24.226 44.1021 23.8971 44.3446 23.6546C44.5871 23.4121 44.916 23.2759 45.2589 23.2759H50.4313C50.7743 23.2759 51.1032 23.4121 51.3457 23.6546C51.5882 23.8971 51.7244 24.226 51.7244 24.569C51.7244 24.9119 51.5882 25.2408 51.3457 25.4833C51.1032 25.7259 50.7743 25.8621 50.4313 25.8621Z" fill="#F5FAFF"/>
<path d="M27.1553 46.5518C27.0011 46.5764 26.844 46.5764 26.6898 46.5518L25.5001 46.0604C21.7703 44.5805 18.5746 42.0083 16.3318 38.681C14.0889 35.3537 12.9036 31.4264 12.9311 27.4138V19.3966C12.9289 19.1405 13.0043 18.8897 13.1474 18.6774C13.2906 18.465 13.4947 18.301 13.7329 18.2069L26.6639 13.0345C26.9787 12.9052 27.3318 12.9052 27.6467 13.0345L40.5777 18.2069C40.8159 18.301 41.02 18.465 41.1631 18.6774C41.3062 18.8897 41.3816 19.1405 41.3794 19.3966V27.4138C41.3913 31.4132 40.1987 35.3235 37.9568 38.6355C35.715 41.9475 32.5279 44.5077 28.8104 45.9828L27.6208 46.4742C27.4666 46.4988 27.3095 46.4988 27.1553 46.4742V46.5518ZM15.5173 20.2759V27.4138C15.5043 30.8988 16.5409 34.307 18.4921 37.1946C20.4433 40.0822 23.2187 42.3154 26.457 43.6035L27.1553 43.8621L27.8277 43.6035C31.0708 42.3195 33.8517 40.0881 35.8078 37.2001C37.7638 34.3122 38.8042 30.9018 38.7932 27.4138V20.2759L27.1553 15.6207L15.5173 20.2759Z" fill="#F5FAFF"/>
<path d="M24.5685 33.6204C24.3989 33.6225 24.2307 33.589 24.0748 33.5222C23.9189 33.4554 23.7788 33.3567 23.6633 33.2325L21.0771 30.6463C20.837 30.4062 20.7021 30.0806 20.7021 29.7411C20.7021 29.4016 20.837 29.076 21.0771 28.8359C21.3171 28.5959 21.6428 28.461 21.9823 28.461C22.3218 28.461 22.6474 28.5959 22.8874 28.8359L24.5685 30.4911L31.4219 23.6635C31.5408 23.5446 31.6819 23.4503 31.8372 23.386C31.9925 23.3217 32.159 23.2886 32.3271 23.2886C32.4952 23.2886 32.6617 23.3217 32.817 23.386C32.9723 23.4503 33.1134 23.5446 33.2323 23.6635C33.3511 23.7824 33.4454 23.9235 33.5098 24.0788C33.5741 24.2341 33.6072 24.4006 33.6072 24.5687C33.6072 24.7368 33.5741 24.9032 33.5098 25.0586C33.4454 25.2139 33.3511 25.355 33.2323 25.4739L25.4736 33.2325C25.3582 33.3567 25.218 33.4554 25.0621 33.5222C24.9062 33.589 24.7381 33.6225 24.5685 33.6204Z" fill="#F5FAFF"/>
</svg>
