<svg width="26" height="26" viewBox="0 0 26 26" fill="none" xmlns="http://www.w3.org/2000/svg">
<path d="M12.8516 25.5947C19.7551 25.5947 25.3516 19.9983 25.3516 13.0947C25.3516 6.19117 19.7551 0.594727 12.8516 0.594727C5.948 0.594727 0.351562 6.19117 0.351562 13.0947C0.351562 19.9983 5.948 25.5947 12.8516 25.5947Z" fill="#004A99"/>
<path d="M14.2359 21.0567V14.0906H16.5597L17.0003 11.2109H14.2359V9.33823C14.2359 8.55141 14.6241 7.78032 15.862 7.78032H17.121V5.32543C17.121 5.32543 15.9774 5.13135 14.8916 5.13135C12.6151 5.13135 11.1254 6.51091 11.1254 9.00776V11.2056H8.5918V14.0854H11.1254V21.0514H14.2412L14.2359 21.0567Z" fill="white"/>
</svg>
