<svg width="75" height="75" viewBox="0 0 75 75" fill="none" xmlns="http://www.w3.org/2000/svg">
<path d="M1.31579 26.6127C0.966819 26.6127 0.632143 26.7401 0.385385 26.967C0.138627 27.1938 0 27.5015 0 27.8223V32.6611C0 32.9819 0.138627 33.2896 0.385385 33.5164C0.632143 33.7433 0.966819 33.8707 1.31579 33.8707H4.1847C4.59732 35.5147 5.28158 37.0908 6.21364 38.5442L3.01694 41.4831C2.89475 41.5954 2.79782 41.7288 2.73169 41.8756C2.66556 42.0223 2.63153 42.1796 2.63153 42.3385C2.63153 42.4974 2.66556 42.6547 2.73169 42.8014C2.79782 42.9482 2.89475 43.0816 3.01694 43.1939L6.9643 46.8229C7.08648 46.9353 7.23154 47.0244 7.39118 47.0852C7.55082 47.146 7.72193 47.1772 7.89473 47.1772C8.06752 47.1772 8.23863 47.146 8.39827 47.0852C8.55791 47.0244 8.70297 46.9353 8.82515 46.8229L12.0219 43.884C13.6027 44.7409 15.3171 45.37 17.1052 45.7493V49.5966C17.1052 49.9174 17.2439 50.2251 17.4906 50.4519C17.7374 50.6788 18.0721 50.8062 18.421 50.8062H23.0345C23.8773 53.8114 25.4941 56.5861 27.7484 58.8961C30.0028 61.206 32.8285 62.9834 35.9871 64.0783C39.1458 65.1732 42.5445 65.5534 45.8966 65.1868C49.2486 64.8202 52.4555 63.7176 55.2466 61.972L68.2613 73.937C68.6278 74.274 69.063 74.5413 69.5419 74.7237C70.0208 74.906 70.5341 74.9999 71.0525 74.9999C71.5709 74.9999 72.0842 74.906 72.5632 74.7237C73.0421 74.5413 73.4773 74.274 73.8438 73.937C74.2104 73.6 74.5011 73.1999 74.6995 72.7596C74.8979 72.3193 75 71.8474 75 71.3708C75 70.8942 74.8979 70.4223 74.6995 69.982C74.5011 69.5417 74.2104 69.1416 73.8438 68.8046L60.8292 56.8395C63.7145 52.9435 64.9513 48.2123 64.3068 43.5364C63.6623 38.8606 61.1809 34.5625 57.3297 31.4514H59.2104C59.5594 31.4514 59.8941 31.3239 60.1409 31.0971C60.3876 30.8702 60.5262 30.5625 60.5262 30.2417V25.6238C60.7856 24.9917 64.4736 15.9862 64.4736 15.7256C64.4736 13.0655 63.6576 10.9667 62.0486 9.48725C60.4396 8.00781 58.1565 7.25781 55.2631 7.25781C52.3697 7.25781 50.0868 8.00796 48.4776 9.48725C46.8684 10.9665 46.0526 13.0655 46.0526 15.7256C46.0526 15.8706 49.9999 25.6222 49.9999 25.6222V27.5815C47.8771 26.9383 45.6561 26.6112 43.421 26.6127H37.9205C37.5079 24.9687 36.8236 23.3926 35.8916 21.9392L39.0883 19.0003C39.2105 18.888 39.3074 18.7546 39.3735 18.6079C39.4396 18.4611 39.4737 18.3038 39.4737 18.1449C39.4737 17.9861 39.4396 17.8288 39.3735 17.682C39.3074 17.5352 39.2105 17.4019 39.0883 17.2895L35.1409 13.6605C35.0187 13.5482 34.8737 13.459 34.714 13.3982C34.5544 13.3375 34.3833 13.3062 34.2105 13.3062C34.0377 13.3062 33.8666 13.3375 33.7069 13.3982C33.5473 13.459 33.4022 13.5482 33.2801 13.6605L30.0833 16.5994C28.5025 15.7425 26.7881 15.1134 25 14.7341V10.8868C25 10.566 24.8613 10.2583 24.6146 10.0315C24.3678 9.80462 24.0331 9.67717 23.6842 9.67717H18.421C18.0721 9.67717 17.7374 9.80462 17.4906 10.0315C17.2439 10.2583 17.1052 10.566 17.1052 10.8868V14.7341C15.3171 15.1134 13.6027 15.7425 12.0219 16.5994L8.82515 13.6605C8.70297 13.5482 8.55791 13.459 8.39827 13.3982C8.23863 13.3375 8.06752 13.3062 7.89473 13.3062C7.72193 13.3062 7.55082 13.3375 7.39118 13.3982C7.23154 13.459 7.08648 13.5482 6.9643 13.6605L3.01694 17.2895C2.89475 17.4019 2.79782 17.5352 2.73169 17.682C2.66556 17.8288 2.63153 17.9861 2.63153 18.1449C2.63153 18.3038 2.66556 18.4611 2.73169 18.6079C2.79782 18.7546 2.89475 18.888 3.01694 19.0003L6.21364 21.9392C5.28158 23.3926 4.59732 24.9687 4.1847 26.6127H1.31579ZM71.983 70.5155C72.1081 70.6272 72.2078 70.7607 72.2763 70.9082C72.3448 71.0556 72.3807 71.2141 72.382 71.3745C72.3832 71.5348 72.3498 71.6938 72.2837 71.8422C72.2175 71.9905 72.1199 72.1253 71.9966 72.2387C71.8732 72.3521 71.7266 72.4418 71.5652 72.5026C71.4039 72.5634 71.2309 72.5941 71.0565 72.5929C70.8821 72.5917 70.7097 72.5587 70.5493 72.4957C70.3889 72.4327 70.2438 72.341 70.1223 72.226L57.34 60.4749C57.9981 59.9406 58.6196 59.3693 59.2007 58.7643L71.983 70.5155ZM48.6863 15.5114C48.7642 11.6397 50.9761 9.67717 55.2631 9.67717C59.5558 9.67717 61.7673 11.6444 61.84 15.5255C61.4701 16.4595 59.672 20.852 58.3007 24.1933H52.2274L48.6863 15.5114ZM52.6315 26.6127H57.8947V29.032H53.6032C53.2844 28.8693 52.9605 28.7139 52.6315 28.5658V26.6127ZM61.842 45.9675C61.842 49.3166 60.762 52.5904 58.7384 55.3752C56.7148 58.16 53.8386 60.3306 50.4733 61.6128C47.1081 62.8949 43.4049 63.231 39.8319 62.5785C36.2589 61.9259 32.9766 60.3142 30.3998 57.9468C27.8231 55.5795 26.0677 52.563 25.3555 49.2786C24.6433 45.9942 25.0062 42.5894 26.3986 39.4947C27.7909 36.3999 30.15 33.7541 33.1776 31.8918C36.2053 30.0295 39.7655 29.0343 43.4083 29.032H43.421C48.3049 29.0371 52.9871 30.823 56.4405 33.9979C59.8939 37.1729 61.8365 41.4775 61.842 45.9675ZM21.0526 36.2901C19.7514 36.2901 18.4794 35.9354 17.3975 35.2708C16.3156 34.6062 15.4724 33.6615 14.9745 32.5563C14.4765 31.4511 14.3462 30.235 14.6001 29.0617C14.8539 27.8884 15.4805 26.8107 16.4006 25.9648C17.3207 25.119 18.4929 24.5429 19.7691 24.3095C21.0453 24.0762 22.3681 24.1959 23.5703 24.6537C24.7724 25.1115 25.7999 25.8867 26.5228 26.8814C27.2457 27.8761 27.6315 29.0454 27.6315 30.2417C27.6296 31.8453 26.9358 33.3827 25.7025 34.5166C24.4691 35.6505 22.7968 36.2883 21.0526 36.2901ZM6.56101 28.0215C6.92257 26.0323 7.74529 24.1379 8.97334 22.4668C9.15042 22.2339 9.23263 21.951 9.20556 21.6679C9.1785 21.3848 9.04388 21.1195 8.82532 20.9186L5.80805 18.1449L7.89473 16.2265L10.9117 19.0003C11.1303 19.2012 11.4188 19.325 11.7268 19.3499C12.0347 19.3748 12.3423 19.2992 12.5957 19.1364C14.4134 18.0074 16.474 17.251 18.6376 16.9186C18.9448 16.8715 19.2238 16.7257 19.4251 16.5073C19.6263 16.2888 19.7368 16.0118 19.7368 15.7256V12.0965H22.3684V15.7256C22.3684 16.0119 22.4788 16.2889 22.6801 16.5074C22.8814 16.7259 23.1604 16.8716 23.4676 16.9188C25.6312 17.2512 27.6918 18.0075 29.5095 19.1366C29.7629 19.2993 30.0705 19.3749 30.3784 19.35C30.6864 19.3252 30.9749 19.2014 31.1935 19.0005L34.2105 16.2265L36.2972 18.1449L33.2801 20.9186C33.0615 21.1195 32.9269 21.3848 32.8998 21.6679C32.8727 21.951 32.955 22.2339 33.132 22.4668C34.3595 24.1372 35.1821 26.0307 35.5439 28.0189C33.6301 28.7322 31.8407 29.7002 30.2332 30.8919C30.2511 30.6767 30.2631 30.4602 30.2631 30.2409C30.264 28.4421 29.6419 26.6897 28.4872 25.2376C27.3324 23.7855 25.7048 22.709 23.8401 22.164C21.9754 21.6191 19.9705 21.634 18.1156 22.2066C16.2608 22.7791 14.6523 23.8797 13.5232 25.3488C12.3941 26.8179 11.803 28.5793 11.8355 30.3779C11.8679 32.1765 12.5223 33.9189 13.7038 35.3527C14.8853 36.7866 16.5325 37.8374 18.407 38.3531C20.2815 38.8688 22.2859 38.8226 24.1299 38.221C22.9653 40.6631 22.3654 43.3011 22.3684 45.9675C22.3685 46.7763 22.4235 47.5844 22.5329 48.3869H19.7368V44.7578C19.7368 44.4715 19.6264 44.1945 19.4251 43.976C19.2238 43.7576 18.9448 43.6118 18.6376 43.5647C16.474 43.2323 14.4134 42.4759 12.5957 41.3469C12.3423 41.1841 12.0347 41.1085 11.7268 41.1334C11.4188 41.1582 11.1303 41.282 10.9117 41.4829L7.89473 44.2569L5.80805 42.3385L8.82515 39.5648C9.04371 39.3639 9.17833 39.0986 9.2054 38.8155C9.23246 38.5324 9.15025 38.2496 8.97318 38.0166C7.74512 36.3455 6.92241 34.4511 6.56085 32.4619C6.50958 32.1795 6.35105 31.923 6.11344 31.738C5.87583 31.553 5.57454 31.4514 5.26315 31.4514H2.63158V29.032H5.26315C5.57457 29.032 5.8759 28.9305 6.11354 28.7455C6.35119 28.5604 6.50974 28.3039 6.56101 28.0215Z" fill="#F5FAFF"/>
<path d="M40.928 6.71694C40.7719 7.00388 40.7462 7.33607 40.8566 7.64042C40.9669 7.94478 41.2042 8.19638 41.5163 8.33988L44.1479 9.54955C44.3026 9.62207 44.4714 9.66572 44.6445 9.67798C44.8177 9.69023 44.9917 9.67086 45.1567 9.62097C45.3217 9.57109 45.4742 9.49167 45.6057 9.38731C45.7371 9.28295 45.8447 9.1557 45.9224 9.01291C46.0001 8.87012 46.0462 8.71461 46.0582 8.55534C46.0702 8.39606 46.0478 8.23619 45.9922 8.08493C45.9367 7.93366 45.8491 7.79401 45.7346 7.674C45.62 7.554 45.4808 7.45603 45.3249 7.38574L42.6933 6.17606C42.3812 6.03258 42.0199 6.00896 41.6888 6.1104C41.3577 6.21183 41.0841 6.43001 40.928 6.71694Z" fill="#F5FAFF"/>
<path d="M53.9473 1.20968V3.62904C53.9473 3.94986 54.0859 4.25755 54.3326 4.48441C54.5794 4.71127 54.9141 4.83871 55.2631 4.83871C55.612 4.83871 55.9467 4.71127 56.1935 4.48441C56.4402 4.25755 56.5788 3.94986 56.5788 3.62904V1.20968C56.5788 0.888852 56.4402 0.581165 56.1935 0.354307C55.9467 0.127448 55.612 0 55.2631 0C54.9141 0 54.5794 0.127448 54.3326 0.354307C54.0859 0.581165 53.9473 0.888852 53.9473 1.20968Z" fill="#F5FAFF"/>
<path d="M46.78 1.3372C46.4679 1.48069 46.2306 1.73229 46.1202 2.03665C46.0099 2.34101 46.0356 2.67319 46.1917 2.96013L47.5075 5.37949C47.5839 5.52283 47.6905 5.65085 47.821 5.75615C47.9515 5.86145 48.1034 5.94195 48.268 5.99302C48.4325 6.04409 48.6064 6.06471 48.7796 6.05369C48.9529 6.04268 49.122 6.00024 49.2774 5.92884C49.4327 5.85743 49.5711 5.75846 49.6846 5.63765C49.7981 5.51683 49.8845 5.37655 49.9388 5.22489C49.993 5.07323 50.0141 4.9132 50.0007 4.75402C49.9874 4.59484 49.9399 4.43966 49.8611 4.29743L48.5453 1.87807C48.3892 1.59114 48.1155 1.37296 47.7845 1.27153C47.4534 1.1701 47.0921 1.19372 46.78 1.3372Z" fill="#F5FAFF"/>
<path d="M61.9808 1.87875L60.6651 4.2981C60.5862 4.44033 60.5387 4.59551 60.5254 4.75469C60.512 4.91387 60.5331 5.0739 60.5874 5.22556C60.6416 5.37722 60.728 5.5175 60.8415 5.63832C60.955 5.75914 61.0934 5.8581 61.2488 5.92951C61.4041 6.00091 61.5732 6.04335 61.7465 6.05436C61.9197 6.06538 62.0936 6.04476 62.2582 5.99369C62.4227 5.94262 62.5746 5.86212 62.7051 5.75682C62.8356 5.65152 62.9422 5.5235 63.0187 5.38016L64.3345 2.9608C64.4133 2.81857 64.4608 2.66339 64.4741 2.50421C64.4875 2.34503 64.4664 2.185 64.4121 2.03335C64.3579 1.88169 64.2715 1.74141 64.158 1.62059C64.0445 1.49977 63.9061 1.40081 63.7507 1.3294C63.5954 1.25799 63.4263 1.21556 63.253 1.20454C63.0798 1.19353 62.9059 1.21415 62.7414 1.26522C62.5768 1.31628 62.4249 1.39679 62.2944 1.50209C62.1639 1.60739 62.0573 1.7354 61.9808 1.87875Z" fill="#F5FAFF"/>
<path d="M67.8319 6.17594L65.2003 7.38561C65.0444 7.45591 64.9052 7.55388 64.7906 7.67388C64.6761 7.79388 64.5885 7.93354 64.533 8.0848C64.4775 8.23606 64.455 8.39594 64.467 8.55521C64.479 8.71448 64.5251 8.86999 64.6028 9.01278C64.6805 9.15558 64.7881 9.28282 64.9195 9.38718C65.051 9.49155 65.2035 9.57096 65.3685 9.62085C65.5335 9.67073 65.7075 9.69011 65.8807 9.67785C66.0538 9.66559 66.2226 9.62194 66.3773 9.54943L69.0089 8.33975C69.1648 8.26946 69.3041 8.17149 69.4186 8.05149C69.5331 7.93149 69.6207 7.79183 69.6762 7.64056C69.7318 7.4893 69.7542 7.32943 69.7422 7.17016C69.7302 7.01088 69.6841 6.85537 69.6064 6.71258C69.5288 6.56979 69.4211 6.44254 69.2897 6.33818C69.1583 6.23382 69.0057 6.1544 68.8407 6.10452C68.6758 6.05463 68.5017 6.03526 68.3286 6.04752C68.1554 6.05977 67.9866 6.10342 67.8319 6.17594Z" fill="#F5FAFF"/>
<path d="M27.6318 45.9673C27.6318 48.8383 28.5579 51.6449 30.2928 54.032C32.0278 56.4192 34.4938 58.2798 37.3789 59.3785C40.2641 60.4772 43.4388 60.7646 46.5017 60.2045C49.5645 59.6444 52.3779 58.2619 54.5861 56.2318C56.7943 54.2017 58.2981 51.6151 58.9074 48.7993C59.5166 45.9834 59.2039 43.0647 58.0088 40.4122C56.8138 37.7597 54.79 35.4926 52.1934 33.8976C49.5969 32.3025 46.5441 31.4512 43.4213 31.4512C39.2351 31.4555 35.2217 32.9863 32.2617 35.7076C29.3016 38.429 27.6365 42.1187 27.6318 45.9673ZM56.5792 45.9673C56.5792 48.3598 55.8075 50.6986 54.3617 52.6879C52.9159 54.6772 50.8609 56.2277 48.4566 57.1433C46.0523 58.0589 43.4067 58.2984 40.8543 57.8317C38.3019 57.3649 35.9574 56.2128 34.1173 54.521C32.2771 52.8293 31.0239 50.6738 30.5162 48.3273C30.0085 45.9807 30.2691 43.5485 31.265 41.3381C32.2609 39.1277 33.9474 37.2384 36.1112 35.9092C38.275 34.58 40.8189 33.8705 43.4213 33.8705C46.9098 33.8742 50.2542 35.1498 52.7209 37.4176C55.1877 39.6854 56.5752 42.7602 56.5792 45.9673Z" fill="#F5FAFF"/>
<path d="M35.5261 45.968C35.5261 45.6472 35.3875 45.3395 35.1407 45.1126C34.894 44.8857 34.5593 44.7583 34.2103 44.7583C33.8614 44.7583 33.5267 44.8857 33.2799 45.1126C33.0332 45.3395 32.8945 45.6472 32.8945 45.968C32.8977 48.5337 34.0077 50.9935 35.9811 52.8078C37.9545 54.622 40.63 55.6425 43.4208 55.6454C43.7698 55.6454 44.1045 55.518 44.3512 55.2911C44.598 55.0642 44.7366 54.7566 44.7366 54.4357C44.7366 54.1149 44.598 53.8072 44.3512 53.5804C44.1045 53.3535 43.7698 53.226 43.4208 53.226C41.3277 53.2239 39.321 52.4586 37.841 51.0979C36.3609 49.7372 35.5284 47.8923 35.5261 45.968Z" fill="#F5FAFF"/>
</svg>
