<svg width="26" height="26" viewBox="0 0 26 26" fill="none" xmlns="http://www.w3.org/2000/svg">
<path d="M12.8516 25.1892C19.7551 25.1892 25.3516 19.5928 25.3516 12.6892C25.3516 5.78565 19.7551 0.189209 12.8516 0.189209C5.94801 0.189209 0.351562 5.78565 0.351562 12.6892C0.351562 19.5928 5.94801 25.1892 12.8516 25.1892Z" fill="#004A99"/>
<path d="M16.2977 8.50903C15.8781 8.50903 15.5371 8.84999 15.5371 9.26963C15.5371 9.68927 15.8781 10.0302 16.2977 10.0302C16.7173 10.0302 17.0583 9.68927 17.0583 9.26963C17.0583 8.84999 16.7173 8.50903 16.2977 8.50903Z" fill="white"/>
<path d="M12.9042 9.48462C11.1365 9.48462 9.69922 10.9219 9.69922 12.6896C9.69922 14.4573 11.1365 15.8946 12.9042 15.8946C14.6719 15.8946 16.1092 14.4573 16.1092 12.6896C16.1092 10.9219 14.6719 9.48462 12.9042 9.48462ZM12.9042 14.7406C11.7712 14.7406 10.8532 13.8174 10.8532 12.6896C10.8532 11.5618 11.7764 10.6386 12.9042 10.6386C14.032 10.6386 14.9552 11.5618 14.9552 12.6896C14.9552 13.8174 14.032 14.7406 12.9042 14.7406Z" fill="white"/>
<path d="M15.4486 19.1939H10.2555C8.09965 19.1939 6.34766 17.4419 6.34766 15.286V10.0929C6.34766 7.93705 8.09965 6.18506 10.2555 6.18506H15.4486C17.6045 6.18506 19.3565 7.93705 19.3565 10.0929V15.286C19.3565 17.4419 17.6045 19.1939 15.4486 19.1939ZM10.2555 7.40726C8.77632 7.40726 7.56986 8.61372 7.56986 10.0929V15.286C7.56986 16.7652 8.77632 17.9717 10.2555 17.9717H15.4486C16.9278 17.9717 18.1343 16.7652 18.1343 15.286V10.0929C18.1343 8.61372 16.9278 7.40726 15.4486 7.40726H10.2555Z" fill="white"/>
</svg>
