<svg width="26" height="26" viewBox="0 0 26 26" fill="none" xmlns="http://www.w3.org/2000/svg">
<path d="M12.8516 25.2974C19.7551 25.2974 25.3516 19.7009 25.3516 12.7974C25.3516 5.8938 19.7551 0.297363 12.8516 0.297363C5.94801 0.297363 0.351562 5.8938 0.351562 12.7974C0.351562 19.7009 5.94801 25.2974 12.8516 25.2974Z" fill="#004A99"/>
<path d="M9.97012 6.98951C9.97012 7.92406 9.16008 8.68166 8.16084 8.68166C7.1616 8.68166 6.35156 7.92406 6.35156 6.98951C6.35156 6.05496 7.1616 5.29736 8.16084 5.29736C9.16008 5.29736 9.97012 6.05496 9.97012 6.98951Z" fill="white"/>
<path d="M6.59899 9.92546H9.69177V19.2974H6.59899V9.92546Z" fill="white"/>
<path d="M14.6712 9.92546H11.5784V19.2974H14.6712C14.6712 19.2974 14.6712 16.347 14.6712 14.5022C14.6712 13.395 15.0492 12.2829 16.5577 12.2829C18.2626 12.2829 18.2523 13.7319 18.2444 14.8545C18.234 16.3218 18.2588 17.8192 18.2588 19.2974H21.3516V14.3511C21.3254 11.1927 20.5024 9.73745 17.7949 9.73745C16.187 9.73745 15.1903 10.4674 14.6712 11.1279V9.92546Z" fill="white"/>
</svg>
