<svg width="24" height="24" viewBox="0 0 24 24" fill="none" xmlns="http://www.w3.org/2000/svg">
<path d="M23.7215 14.4276C23.1993 13.6552 22.677 12.9103 22.1548 12.1379C22.0387 11.9724 22.0387 11.8621 22.1548 11.6966C22.677 10.9517 23.1703 10.2069 23.6925 9.46207C24.3018 8.57931 23.9826 7.72414 22.9382 7.36552C22.0677 7.06207 21.1973 6.73103 20.3269 6.42759C20.1528 6.37242 20.0658 6.26207 20.0658 6.06897C20.0368 5.15862 19.9788 4.24828 19.9207 3.36552C19.8627 2.4 19.0793 1.84828 18.0929 2.09655C17.1644 2.31724 16.236 2.56552 15.3366 2.8138C15.1335 2.86897 15.0174 2.8138 14.8724 2.67586C14.2921 1.95862 13.6828 1.26897 13.1025 0.579311C12.4642 -0.193104 11.4778 -0.193104 10.8104 0.579311C10.2302 1.26897 9.62088 1.95862 9.06962 2.64828C8.92455 2.84138 8.77948 2.86897 8.54737 2.81379C7.64795 2.56552 6.74853 2.34483 6.11023 2.17931C4.86264 1.90345 4.10828 2.37241 4.05025 3.36552C3.99223 4.27586 3.9342 5.18621 3.90519 6.12414C3.90519 6.31724 3.81814 6.4 3.64406 6.48276C2.74464 6.81379 1.84522 7.14483 0.945792 7.47587C0.0173552 7.83449 -0.272782 8.68966 0.278476 9.48966C0.800723 10.2621 1.32297 11.0069 1.84521 11.7793C1.96127 11.9448 1.96127 12.0552 1.84521 12.2483C1.29395 13.0207 0.771708 13.7931 0.249461 14.5931C-0.243771 15.3379 0.0753772 16.2207 0.945787 16.5517C1.84521 16.8828 2.77365 17.2138 3.67307 17.5448C3.87617 17.6 3.93419 17.7104 3.93419 17.9035C3.96321 18.7862 4.07926 19.6414 4.07926 20.5241C4.07926 21.4069 4.89164 22.2069 6.02318 21.8759C6.9226 21.6 7.82202 21.4069 8.72145 21.1586C8.89553 21.1034 9.01158 21.131 9.12764 21.2966C9.73693 22.0138 10.3172 22.7034 10.9265 23.4207C11.5938 24.1931 12.5513 24.1931 13.1896 23.4207C13.7988 22.7034 14.3791 22.0138 14.9884 21.2966C15.1045 21.1586 15.1915 21.1034 15.3946 21.1586C16.323 21.4069 17.2515 21.6276 18.1799 21.8759C19.1374 22.1241 19.9497 21.5724 19.9787 20.6345C20.0368 19.7241 20.0948 18.8138 20.1238 17.8759C20.1238 17.6552 20.2399 17.5724 20.414 17.5172C21.2844 17.2138 22.1838 16.8828 23.0542 16.5517C23.9826 16.1103 24.2728 15.2276 23.7215 14.4276ZM16.7873 9.90345L10.9845 15.4207C10.8395 15.5586 10.6364 15.669 10.4333 15.6966C10.3752 15.6966 10.2882 15.7241 10.2302 15.7241C9.96905 15.7241 9.67891 15.6138 9.47581 15.4207L7.09669 13.1586C6.6905 12.7724 6.6905 12.1379 7.09669 11.7517C7.50288 11.3655 8.1702 11.3655 8.57639 11.7517L10.2012 13.2966L15.2495 8.49655C15.6557 8.11035 16.323 8.11035 16.7292 8.49655C17.1934 8.88276 17.1934 9.51724 16.7873 9.90345Z" fill="#31348C"/>
</svg>
