<svg width="98" height="131" viewBox="0 0 98 131" fill="none" xmlns="http://www.w3.org/2000/svg">
<path d="M10.2344 48.6132C10.2344 69.7756 27.4509 86.9921 48.6132 86.9921C69.7756 86.9921 86.9921 69.7756 86.9921 48.6132C86.9921 27.4509 69.7756 10.2344 48.6132 10.2344C27.4509 10.2344 10.2344 27.4509 10.2344 48.6132ZM48.6132 15.3516C66.9541 15.3516 81.8749 30.2723 81.8749 48.6132C81.8749 66.9541 66.9541 81.8749 48.6132 81.8749C30.2723 81.8749 15.3516 66.9541 15.3516 48.6132C15.3516 30.2723 30.2723 15.3516 48.6132 15.3516Z" fill="white"/>
<path d="M24.9183 44.0516L34.8358 53.8232L32.5541 67.5567C32.3952 68.5131 32.79 69.4766 33.5745 70.0463C34.3581 70.616 35.3965 70.6929 36.257 70.2472L48.6132 63.8307L60.9684 70.2472C61.822 70.6899 62.8604 70.621 63.651 70.0463C64.4355 69.4766 64.8303 68.5131 64.6714 67.5567L62.3897 53.8232L72.3072 44.0516C72.9978 43.372 73.2447 42.3605 72.9448 41.4381C72.645 40.5166 71.8504 39.8439 70.892 39.699L57.1286 37.6272L50.901 25.173C50.4682 24.3065 49.5817 23.7588 48.6132 23.7588C47.6438 23.7588 46.7583 24.3065 46.3245 25.173L40.0969 37.6272L26.3335 39.699C25.375 39.8429 24.5805 40.5166 24.2806 41.4381C23.9808 42.3605 24.2287 43.372 24.9183 44.0516ZM42.1728 42.4895C42.9963 42.3655 43.7079 41.8488 44.0807 41.1042L48.6132 32.0382L53.1457 41.1042C53.5185 41.8488 54.2301 42.3655 55.0537 42.4895L65.0712 43.9976L57.8522 51.1087C57.2595 51.6934 56.9876 52.5299 57.1236 53.3515L58.7846 63.347L49.7916 58.6776C49.4228 58.4857 49.018 58.3897 48.6132 58.3897C48.2085 58.3897 47.8037 58.4857 47.4339 58.6776L38.4408 63.347L40.1019 53.3515C40.2389 52.5299 39.967 51.6934 39.3733 51.1087L32.1553 43.9976L42.1728 42.4895Z" fill="white"/>
<path d="M51.1719 2.55859C51.1719 3.97181 50.0265 5.11718 48.6133 5.11718C47.2001 5.11718 46.0547 3.97181 46.0547 2.55859C46.0547 1.14537 47.2001 0 48.6133 0C50.0265 0 51.1719 1.14537 51.1719 2.55859Z" fill="white"/>
<path d="M36.5549 1.50846C15.0317 7.00243 0 26.3728 0 48.6135C0 62.4269 5.8078 75.4427 16.0032 84.6607L0.588676 111.827C0.0929487 112.701 0.154915 113.785 0.746589 114.596C1.33826 115.409 2.34971 115.8 3.33416 115.595L20.8395 111.96L26.9921 129.297C27.3259 130.241 28.1805 130.901 29.1779 130.99C30.1754 131.079 31.1319 130.576 31.6266 129.706L48.6132 99.8423L65.5989 129.706C66.0566 130.51 66.9081 130.999 67.8216 130.999C67.8966 130.999 67.9726 130.996 68.0475 130.99C69.045 130.901 69.8995 130.24 70.2343 129.297L76.3859 111.96L93.8913 115.595C94.8747 115.799 95.8872 115.408 96.4789 114.596C97.0715 113.785 97.1325 112.701 96.6368 111.827L81.2223 84.6607C91.4176 75.4427 97.2254 62.4269 97.2254 48.6135C97.2254 26.3728 82.1937 7.00243 60.6716 1.50846C59.3013 1.15865 57.9091 1.98519 57.5593 3.35444C57.2095 4.72369 58.036 6.11692 59.4053 6.46673C78.6607 11.382 92.1093 28.7135 92.1093 48.6135C92.1093 72.8332 72.4391 92.1096 48.6132 92.1096C24.7704 92.1096 5.11718 72.8172 5.11718 48.6135C5.11718 28.7135 18.5648 11.382 37.8202 6.46673C39.1894 6.11692 40.016 4.72369 39.6672 3.35444C39.3173 1.98519 37.9251 1.15865 36.5549 1.50846ZM29.9445 122.315L24.9163 108.146C24.4885 106.94 23.2372 106.236 21.9849 106.496L7.82969 109.435L20.029 87.9349C27.142 93.106 35.5644 96.2563 44.3226 97.0358L29.9445 122.315ZM75.2406 106.496C73.9893 106.236 72.7369 106.94 72.3092 108.146L67.2819 122.315L52.9029 97.0358C61.662 96.2563 70.0834 93.106 77.1975 87.9349L89.3968 109.435L75.2406 106.496Z" fill="white"/>
</svg>
