<svg width="65" height="65" viewBox="0 0 65 65" fill="none" xmlns="http://www.w3.org/2000/svg">
<path d="M6.7461 32.0939C6.75096 32.2282 6.78623 32.3597 6.84926 32.4784C6.9123 32.5972 7.00144 32.7001 7.11 32.7794C7.21855 32.8586 7.34368 32.9123 7.47597 32.9362C7.60825 32.9602 7.74424 32.9538 7.87369 32.9175L14.9812 30.931C15.1591 30.8812 15.317 30.7772 15.433 30.6334C15.5491 30.4897 15.6174 30.3134 15.6286 30.129C15.6956 29.044 15.8662 27.9678 16.1381 26.9153C18.4768 17.8982 27.7162 12.4644 36.7328 14.8022C38.0975 15.1559 39.4127 15.6785 40.648 16.3579C40.8338 16.4602 41.0501 16.4928 41.2577 16.4496C41.4654 16.4064 41.6507 16.2904 41.7803 16.1225L46.1497 10.4649C46.2262 10.3659 46.2809 10.252 46.3103 10.1304C46.3398 10.0089 46.3432 9.88248 46.3204 9.75951C46.2977 9.63654 46.2492 9.51977 46.1782 9.41681C46.1072 9.31386 46.0153 9.22705 45.9085 9.16206C45.5894 8.9682 45.2723 8.78387 44.9606 8.61159L44.9967 2.98897C44.9979 2.81196 44.9462 2.63864 44.8482 2.49121C44.7503 2.34379 44.6105 2.22897 44.4469 2.16148C41.7884 1.06622 38.9922 0.340989 36.1365 0.00607489C35.9605 -0.0145887 35.7824 0.0177334 35.6249 0.0989037C35.4674 0.180074 35.3377 0.306399 35.2524 0.46171L32.554 5.39409C30.1227 5.38631 27.7028 5.72525 25.3672 6.4007L21.4168 2.39813C21.2923 2.27207 21.133 2.18611 20.9593 2.15127C20.7856 2.11644 20.6054 2.13432 20.4419 2.20262C17.7889 3.31024 15.2996 4.77529 13.0434 6.55711C12.9043 6.66689 12.8013 6.81573 12.7474 6.9845C12.6936 7.15328 12.6914 7.33429 12.7412 7.50431L14.3186 12.8998C12.5938 14.6124 11.1223 16.5624 9.94862 18.6909L4.32599 18.6519H4.32028C4.14424 18.6519 3.97217 18.7042 3.82589 18.8022C3.67961 18.9001 3.56571 19.0393 3.49864 19.202C2.40343 21.8603 1.67815 24.6564 1.3431 27.5119C1.32223 27.6879 1.35446 27.8661 1.43565 28.0236C1.51684 28.1812 1.64328 28.3108 1.79873 28.396L6.73162 31.0975C6.72972 31.4482 6.73454 31.7771 6.7461 32.0939ZM3.85588 23.7308C4.1469 22.6123 4.50219 21.5115 4.92 20.4338L10.4705 20.4729H10.4775C10.6397 20.4729 10.7988 20.4285 10.9375 20.3445C11.0763 20.2605 11.1894 20.1401 11.2646 19.9964C12.4721 17.6917 14.0497 15.6009 15.9343 13.8071C16.0523 13.6947 16.1371 13.552 16.1794 13.3946C16.2217 13.2372 16.2199 13.0712 16.1743 12.9148L14.6173 7.58683C16.4611 6.18993 18.4614 5.01263 20.5778 4.07873L24.4764 8.02989C24.5909 8.14616 24.7352 8.22864 24.8935 8.2683C25.0518 8.30796 25.218 8.30327 25.3738 8.25473C27.858 7.47886 30.4527 7.11548 33.0545 7.17905C33.2183 7.18456 33.3804 7.14411 33.5225 7.06226C33.6645 6.98041 33.7808 6.86044 33.8582 6.71593L36.5208 1.84728C38.8122 2.16244 41.0588 2.74506 43.2146 3.58323L43.179 9.13489C43.1779 9.29817 43.2218 9.45859 43.306 9.59854C43.3901 9.73849 43.5111 9.85256 43.6558 9.92822C43.8096 10.0087 43.9654 10.0927 44.1233 10.1802L40.8293 14.4459C39.6634 13.8657 38.4403 13.4084 37.1798 13.0814C27.214 10.4972 17.0024 16.5029 14.4171 26.47C14.1702 27.4271 13.9987 28.402 13.9041 29.3859L8.51087 30.8931C8.51197 30.7954 8.51367 30.6957 8.51595 30.594C8.51944 30.4313 8.47823 30.2708 8.39679 30.1299C8.31535 29.989 8.19682 29.8732 8.05409 29.795L3.1843 27.129C3.34195 25.9842 3.56619 24.8495 3.85588 23.7308ZM63.0992 41.9327L58.6363 38.5115C59.0132 36.1101 59.046 33.6672 58.7337 31.2566L63.295 27.9631C63.4385 27.8593 63.5477 27.715 63.6087 27.5487C63.6697 27.3825 63.6795 27.2018 63.6371 27.0298C62.9478 24.2387 61.88 21.5549 60.4633 19.0532C60.3759 18.8991 60.2446 18.7745 60.086 18.6955C59.9275 18.6165 59.749 18.5867 59.5733 18.6098L53.9964 19.3461C53.7417 18.9961 53.477 18.6505 53.2059 18.3144C53.1288 18.2187 53.0327 18.1401 52.9237 18.0834C52.8147 18.0268 52.6951 17.9933 52.5725 17.9852C52.4499 17.9771 52.3269 17.9945 52.2114 18.0363C52.0959 18.0782 51.9903 18.1435 51.9013 18.2282L46.7443 23.1333C46.5859 23.2838 46.4886 23.4874 46.4708 23.7052C46.4531 23.923 46.5162 24.1397 46.6481 24.3139C48.2431 26.4182 49.3227 28.8669 49.8004 31.4638C50.2781 34.0606 50.1405 36.7332 49.3988 39.2673C48.657 41.8014 47.3317 44.1264 45.5291 46.0557C43.7265 47.9851 41.4968 49.4652 39.0189 50.3772C36.541 51.2892 33.8838 51.6078 31.2606 51.3075C28.6373 51.0071 26.1209 50.0961 23.9133 48.6476C21.7057 47.1991 19.8682 45.2534 18.5484 42.9665C17.2286 40.6796 16.4631 38.1152 16.3133 35.4791C16.3064 35.3579 16.2747 35.2394 16.2202 35.1309C16.1657 35.0225 16.0896 34.9263 15.9965 34.8484C15.9034 34.7705 15.7953 34.7124 15.679 34.6779C15.5626 34.6434 15.4404 34.633 15.3199 34.6475L8.27398 35.4932C8.04637 35.5204 7.8381 35.6346 7.69268 35.8118C7.54725 35.9889 7.47592 36.2155 7.4936 36.444C7.52813 36.8928 7.57421 37.3422 7.63109 37.7859L3.07347 41.0783C2.92976 41.182 2.82033 41.3263 2.75925 41.4927C2.69817 41.6591 2.68823 41.8399 2.7307 42.0119C3.41984 44.8043 4.48768 47.4892 5.90452 49.9921C5.99189 50.1461 6.12323 50.2706 6.28175 50.3496C6.44026 50.4286 6.61873 50.4585 6.79434 50.4355L12.3676 49.6992C13.7987 51.6642 15.5015 53.4162 17.425 54.9028L16.528 60.4532C16.4996 60.6285 16.5245 60.8083 16.5993 60.9694C16.6741 61.1304 16.7955 61.2654 16.9478 61.3568C18.1772 62.0976 19.4556 62.7541 20.774 63.3217C22.0929 63.891 23.4494 64.3688 24.8339 64.7517C25.0046 64.7989 25.1856 64.7941 25.3535 64.7377C25.5215 64.6814 25.6688 64.5761 25.7765 64.4354L29.1938 59.973C31.5955 60.3508 34.0386 60.3847 36.4498 60.0737L39.7417 64.6313C39.8454 64.775 39.9897 64.8845 40.1561 64.9455C40.3224 65.0066 40.5033 65.0166 40.6753 64.9741C43.468 64.2857 46.1532 63.2178 48.656 61.8003C48.8102 61.7129 48.9348 61.5814 49.0137 61.4227C49.0927 61.264 49.1223 61.0854 49.0989 60.9097L48.3594 55.3377C50.3271 53.9089 52.0799 52.2056 53.5645 50.2796L59.1139 51.1767C59.2889 51.205 59.4684 51.1803 59.6293 51.1058C59.7901 51.0312 59.925 50.9103 60.0166 50.7585C61.5039 48.299 62.6471 45.6472 63.4142 42.8773C63.462 42.7064 63.4575 42.5251 63.4014 42.3567C63.3452 42.1884 63.24 42.0407 63.0992 41.9327ZM60.3533 46.2292C59.8945 47.29 59.3752 48.3236 58.7978 49.3248L53.3183 48.4393C53.1571 48.4132 52.9918 48.432 52.8405 48.4938C52.6893 48.5555 52.558 48.6578 52.4612 48.7893C50.9169 50.8838 49.0382 52.7097 46.9006 54.1937C46.7665 54.2869 46.6607 54.4152 46.5948 54.5645C46.5288 54.7138 46.5053 54.8784 46.5267 55.0403L47.2566 60.543C45.2205 61.6425 43.063 62.5004 40.8279 63.0992L37.5765 58.5989C37.481 58.4667 37.3509 58.3633 37.2005 58.3002C37.0501 58.237 36.8852 58.2164 36.7239 58.2407C34.1505 58.6286 31.531 58.5922 28.9694 58.1331C28.8088 58.1045 28.6435 58.1205 28.4915 58.1795C28.3394 58.2385 28.2066 58.3382 28.1074 58.4676L24.7331 62.8736C22.5166 62.2099 20.3844 61.2915 18.3793 60.1369L19.2649 54.6591C19.2909 54.4981 19.272 54.3331 19.2104 54.182C19.1489 54.031 19.0469 53.8998 18.9158 53.8028C16.8231 52.2551 14.997 50.3763 13.5094 48.2404C13.4161 48.1067 13.288 48.0012 13.1388 47.9355C12.9897 47.8697 12.8254 47.8461 12.6638 47.8674L7.16149 48.5942C6.0622 46.5579 5.20413 44.4004 4.60465 42.1653L9.10501 38.9137C9.23706 38.8182 9.34031 38.6882 9.40347 38.538C9.46664 38.3878 9.48728 38.2231 9.46315 38.0619C9.41846 37.7633 9.37898 37.4603 9.34508 37.1555L14.6159 36.523C14.9211 39.3511 15.8683 42.0721 17.3852 44.4783C18.9022 46.8846 20.9488 48.9125 23.3688 50.4073C25.7889 51.9021 28.5185 52.8243 31.3492 53.1035C34.18 53.3828 37.0371 53.0116 39.7026 52.0184C42.3681 51.0252 44.7714 49.4363 46.7293 47.3728C48.6871 45.3092 50.1477 42.8258 50.9995 40.1118C51.8513 37.3978 52.0719 34.5252 51.6444 31.713C51.2169 28.9008 50.1526 26.2234 48.5327 23.8852L52.4139 20.1938C52.5641 20.3959 52.7106 20.5995 52.8534 20.8046C52.9468 20.9382 53.075 21.0436 53.2241 21.1094C53.3733 21.1753 53.5376 21.199 53.6992 21.1779L59.2054 20.4511C60.3046 22.4864 61.1627 24.6429 61.7622 26.877L57.2595 30.127C57.1269 30.2225 57.0232 30.3526 56.9598 30.5032C56.8964 30.6538 56.8757 30.8189 56.9001 30.9805C57.2893 33.5536 57.2541 36.173 56.7961 38.7348C56.7673 38.8954 56.7833 39.0608 56.8423 39.2129C56.9014 39.3649 57.0011 39.4979 57.1306 39.597L61.5353 42.9737C61.2039 44.0806 60.8093 45.1676 60.3533 46.2292ZM36.6766 21.0235C36.3229 20.4101 35.814 19.9007 35.201 19.5464C34.5879 19.1921 33.8924 19.0056 33.1844 19.0054C32.4764 19.0053 31.7808 19.1916 31.1676 19.5457C30.5544 19.8997 30.0453 20.409 29.6915 21.0223L25.247 28.7167L20.8062 36.4103C20.4523 37.0234 20.2662 37.7189 20.2663 38.4268C20.2665 39.1346 20.453 39.83 20.8071 40.443C21.1612 41.0559 21.6705 41.5649 22.2836 41.9186C22.8968 42.2724 23.5923 42.4585 24.3002 42.4583H42.067C42.7749 42.4585 43.4704 42.2724 44.0835 41.9186C44.6967 41.5649 45.2059 41.0559 45.56 40.443C45.9141 39.83 46.1006 39.1346 46.1008 38.4268C46.101 37.7189 45.9148 37.0234 45.561 36.4103L41.1167 28.7169L36.6766 21.0235ZM44.0221 39.5507C43.8302 39.8994 43.5466 40.189 43.202 40.3882C42.8574 40.5873 42.4649 40.6885 42.067 40.6806H24.3002C23.9043 40.6809 23.5153 40.5771 23.1723 40.3794C22.8293 40.1817 22.5444 39.8972 22.3462 39.5545C22.1481 39.2118 22.0437 38.8229 22.0434 38.4271C22.0432 38.0312 22.1473 37.6422 22.3451 37.2993L26.7869 29.6056L31.2321 21.9104C31.4299 21.5677 31.7145 21.283 32.0572 21.0851C32.4 20.8872 32.7888 20.7831 33.1846 20.7832C33.5803 20.7832 33.9691 20.8875 34.3118 21.0856C34.6545 21.2836 34.9389 21.5683 35.1366 21.9112L39.5772 29.6056L44.0216 37.2989C44.2269 37.6386 44.3355 38.0279 44.3355 38.4247C44.3356 38.8216 44.2272 39.211 44.0221 39.5507ZM34.0706 25.6049V34.015C34.0706 34.2507 33.977 34.4768 33.8103 34.6434C33.6437 34.8101 33.4176 34.9037 33.1819 34.9037C32.9462 34.9037 32.7202 34.8101 32.5535 34.6434C32.3869 34.4768 32.2933 34.2507 32.2933 34.015V25.6049C32.2933 25.3692 32.3869 25.1432 32.5535 24.9765C32.7202 24.8099 32.9462 24.7162 33.1819 24.7162C33.4176 24.7162 33.6437 24.8099 33.8103 24.9765C33.977 25.1432 34.0706 25.3692 34.0706 25.6049ZM34.0706 37.3331V37.6173C34.0706 37.853 33.977 38.0791 33.8103 38.2457C33.6437 38.4124 33.4176 38.506 33.1819 38.506C32.9462 38.506 32.7202 38.4124 32.5535 38.2457C32.3869 38.0791 32.2933 37.853 32.2933 37.6173V37.3331C32.2933 37.0974 32.3869 36.8714 32.5535 36.7047C32.7202 36.538 32.9462 36.4444 33.1819 36.4444C33.4176 36.4444 33.6437 36.538 33.8103 36.7047C33.977 36.8714 34.0706 37.0974 34.0706 37.3331Z" fill="#9FB2C6"/>
</svg>
