<svg width="75" height="75" viewBox="0 0 75 75" fill="none" xmlns="http://www.w3.org/2000/svg">
<path d="M74.6894 35.7711C75.1828 34.8556 75.0797 33.7413 74.4265 32.9322L70.8021 28.4412C70.7379 28.3616 70.7083 28.2579 70.7212 28.1564L71.4486 22.4211C71.5799 21.3875 71.081 20.3843 70.1779 19.8651L65.1873 16.9947C65.0985 16.9436 65.0335 16.8573 65.0089 16.7578L63.6251 11.1502C63.3748 10.1359 62.5456 9.37886 61.5127 9.22184L55.8332 8.35688C55.7317 8.34136 55.6396 8.28423 55.5805 8.19986L52.2766 3.47844C51.6762 2.62038 50.628 2.21332 49.605 2.44182L44.0015 3.69479C43.9007 3.7172 43.7941 3.69757 43.7085 3.63986L38.9335 0.438298C38.0621 -0.146148 36.9364 -0.146002 36.0653 0.438151L31.29 3.63957C31.2045 3.69699 31.0977 3.71676 30.9973 3.69435L25.3935 2.44138C24.3705 2.21258 23.3223 2.61979 22.7221 3.478L19.4183 8.19986C19.3594 8.28408 19.2673 8.34121 19.1656 8.35674L13.4861 9.22154C12.4533 9.37871 11.624 10.1357 11.3737 11.1502L9.98994 16.7577C9.96533 16.8573 9.90044 16.9436 9.81138 16.9947L4.82089 19.8648C3.91785 20.3842 3.41909 21.3875 3.55019 22.4208L4.2776 28.1566C4.29049 28.2578 4.26105 28.3615 4.19689 28.441L0.572299 32.932C-0.0808453 33.7412 -0.183966 34.8556 0.309518 35.7712L3.05143 40.856C3.09992 40.946 3.10973 41.0535 3.07883 41.1506L1.31377 46.6551C0.996059 47.6459 1.3019 48.7228 2.09303 49.3988L6.47579 53.143C6.55357 53.2095 6.60161 53.3064 6.60762 53.4085L6.94188 59.1786C7.00223 60.2198 7.67735 61.1154 8.66197 61.46L14.0897 63.3594C14.1867 63.3933 14.2665 63.4663 14.309 63.5597L16.6938 68.8134C17.1262 69.7662 18.0839 70.365 19.1271 70.3225L24.8659 70.1248C24.9676 70.1208 25.0701 70.1605 25.1436 70.2327L29.2532 74.2622C29.7458 74.7453 30.3933 75.0002 31.0531 75C31.3959 75 31.7422 74.9312 32.0716 74.7897L37.3504 72.5242C37.445 72.4837 37.5537 72.4837 37.6483 72.5242L42.9268 74.7897C43.8902 75.2032 44.9964 74.996 45.7453 74.262L49.8549 70.2324C49.9286 70.1604 50.0295 70.1226 50.1326 70.1246L55.8713 70.3224C56.9158 70.3634 57.8723 69.7662 58.3047 68.8132L60.6895 63.5597C60.732 63.4662 60.8118 63.3931 60.9088 63.3593L66.3365 61.4599C67.3212 61.1151 67.9963 60.2197 68.0566 59.1785L68.3909 53.4085C68.3969 53.3064 68.445 53.2095 68.5227 53.1429L72.9055 49.3986C73.6966 48.7226 74.0025 47.6456 73.6848 46.6549L71.92 41.1509C71.8888 41.0533 71.8986 40.946 71.9472 40.8559L74.6894 35.7711ZM69.8279 41.8215L71.5928 47.326C71.6392 47.4713 71.5944 47.6292 71.4784 47.7283L67.0956 51.4726C66.5653 51.9258 66.2381 52.585 66.1975 53.2815L65.8633 59.0517C65.8543 59.2043 65.7553 59.3357 65.6108 59.3862L60.183 61.2856C59.5227 61.5167 58.9781 62.0146 58.6889 62.6516L56.3041 67.9054C56.2406 68.0451 56.0985 68.1331 55.947 68.1268L50.2082 67.9291C49.5042 67.9061 48.8175 68.1727 48.3167 68.664L44.2071 72.6934C44.0973 72.8012 43.935 72.8315 43.7936 72.7709L38.5152 70.5055C37.8695 70.2282 37.1292 70.2283 36.4838 70.5053L31.2052 72.7709C31.0641 72.8315 30.9015 72.8012 30.7917 72.6934L26.6821 68.6641C26.2021 68.1932 25.5487 67.9276 24.8778 67.9276C24.8488 67.9276 24.8198 67.9282 24.7906 67.9292L19.0516 68.127C18.9 68.1315 18.7581 68.0452 18.6945 67.9055L16.3097 62.6516C16.0204 62.0146 15.476 61.5169 14.8156 61.2857L9.38791 59.3864C9.24349 59.3358 9.14432 59.2044 9.13539 59.0518L8.80112 53.2815C8.7607 52.5851 8.43332 51.926 7.90292 51.4728L3.52031 47.7285C3.4043 47.6293 3.35933 47.4714 3.40591 47.3261L5.17097 41.8212C5.38336 41.1579 5.31569 40.4261 4.98523 39.8134L2.24346 34.7287C2.17096 34.5944 2.18604 34.4309 2.28184 34.3122L5.90658 29.8211C6.34425 29.2787 6.54493 28.5711 6.45719 27.8802L5.72978 22.1445C5.71044 21.9931 5.78368 21.8459 5.9161 21.7697L10.9064 18.8995C11.5121 18.5511 11.9555 17.9625 12.1228 17.2843L13.5066 11.6769C13.5433 11.528 13.6649 11.4171 13.8165 11.3938L19.496 10.5289C20.1889 10.4234 20.8167 10.0336 21.2183 9.45942L24.522 4.73801C24.6103 4.61203 24.7651 4.55271 24.9141 4.58596L30.5178 5.83893C31.2033 5.99185 31.9305 5.85548 32.5137 5.46468L37.289 2.26326C37.4166 2.17772 37.5819 2.17772 37.7095 2.26326C37.7097 2.26341 37.7097 2.26341 37.7097 2.26341L42.4847 5.46454C43.0675 5.85563 43.7951 5.99229 44.4808 5.83893L50.0843 4.58596C50.2348 4.55242 50.3882 4.61233 50.4765 4.73801L53.7802 9.45928C54.1818 10.0336 54.8095 10.4234 55.5025 10.5289L61.182 11.394C61.3336 11.417 61.4552 11.528 61.4919 11.6768L62.8757 17.2843C63.043 17.9625 63.4864 18.5511 64.0919 18.8993L69.0824 21.7697C69.2148 21.8459 69.2881 21.9929 69.2687 22.1447L68.5413 27.8799C68.4534 28.5711 68.6543 29.2787 69.0921 29.8211L72.7167 34.3123C72.8123 34.4309 72.8276 34.5944 72.7552 34.7286L70.0133 39.8134C69.683 40.426 69.6153 41.1578 69.8279 41.8215Z" fill="#F5FAFF"/>
<path d="M56.2843 55.6254C51.2914 60.798 44.5942 63.6465 37.4263 63.6465C23.3678 63.8708 10.9654 51.5721 11.2068 37.427C11.1319 28.5681 15.995 19.8062 23.6174 15.1462C24.1326 14.8257 24.2905 14.1482 23.9698 13.633C23.6493 13.1179 22.972 12.9603 22.4567 13.2806C14.2673 18.2932 8.93214 27.7242 9.00962 37.4272C9.00757 53.5331 22.265 65.8825 37.4263 65.8439C45.1958 65.8439 52.4546 62.7568 57.8652 57.1516C58.2865 56.7151 58.2743 56.0194 57.8377 55.5982C57.401 55.1765 56.7056 55.1891 56.2843 55.6254Z" fill="#F5FAFF"/>
<path d="M37.4268 9.01074C34.1109 9.01133 30.5617 9.62273 27.3667 10.8495C26.7996 11.0652 26.5147 11.6998 26.7301 12.2668C26.9458 12.8341 27.5809 13.1183 28.1475 12.9034C30.9149 11.84 34.3085 11.1895 37.4268 11.2081C46.8437 11.2081 55.5896 16.3143 60.2514 24.5345C64.379 31.7085 64.7892 41.0568 61.1441 48.6018C60.6632 49.6183 60.1099 50.6151 59.5001 51.5641C59.1722 52.0745 59.3201 52.7543 59.8304 53.0822C60.0143 53.2004 60.2199 53.2567 60.4234 53.2567C60.7847 53.2567 61.1388 53.0784 61.3485 52.7519C62.0094 51.7235 62.6088 50.6432 63.13 49.5414C67.0374 41.4645 66.689 31.3049 62.1625 23.4505C57.1115 14.5436 47.6332 9.01074 37.4268 9.01074Z" fill="#F5FAFF"/>
<path d="M19.9951 32.3364V34.7257C19.9951 35.3326 20.4868 35.8243 21.0937 35.8243C21.7006 35.8243 22.1923 35.3326 22.1923 34.7257V32.3364C22.1923 31.8922 22.5538 31.5307 22.9979 31.5307H27.2458C27.6899 31.5307 28.0514 31.8922 28.0514 32.3364V50.0602C28.0514 50.5043 27.6899 50.8658 27.2458 50.8658H22.9979C22.5538 50.8658 22.1923 50.5043 22.1923 50.0602V39.8879C22.1923 39.281 21.7006 38.7893 21.0937 38.7893C20.4868 38.7893 19.9951 39.281 19.9951 39.8879V50.0602C19.9951 51.716 21.3421 53.063 22.9979 53.063H27.2458C28.6049 53.063 29.7545 52.1545 30.1233 50.9134C32.1765 51.6599 34.3259 52.0376 36.5324 52.0376H41.4059C42.0128 52.0376 42.5045 51.5459 42.5045 50.939C42.5045 50.3322 42.0128 49.8405 41.4059 49.8405H36.5324C34.3589 49.8405 32.2486 49.4243 30.2486 48.6054V34.5863C32.0917 34.2816 33.6827 32.7198 34.8941 31.3405C36.7719 29.202 37.8786 26.4069 38.01 23.4701L38.2304 18.545C38.2312 18.5288 38.2316 18.5122 38.2316 18.496C38.2316 18.294 38.3958 18.1298 38.5978 18.1298H38.6529C39.3891 18.1304 40.0784 18.421 40.594 18.9483C41.1112 19.4772 41.3873 20.1761 41.3713 20.9158L41.2026 28.7134C41.2022 28.7336 41.2023 28.7537 41.2029 28.7739C41.2555 30.3454 42.4039 31.5307 43.8741 31.5307H54.1244C54.9321 31.5307 55.5892 32.1878 55.5892 32.9955C55.5892 33.8032 54.9321 34.4603 54.1244 34.4603C53.7007 34.4603 53.1341 34.4603 52.5864 34.4603C51.9795 34.4603 51.4878 34.952 51.4878 35.5589C51.4878 36.1657 51.9795 36.6575 52.5864 36.6575H53.685C54.4927 36.6575 55.1498 37.3146 55.1498 38.1222C55.1498 38.9299 54.4927 39.587 53.685 39.587C53.0425 39.5873 51.9637 39.5875 51.2681 39.587C50.6612 39.587 50.1695 40.0787 50.1695 40.6856C50.1695 41.2925 50.6612 41.7842 51.2681 41.7842H52.3667C53.1744 41.7842 53.8315 42.4413 53.8315 43.249C53.8315 44.0566 53.1744 44.7137 52.3667 44.7137C51.7904 44.7137 50.716 44.7137 50.0963 44.7137C49.4894 44.7137 48.9977 45.2055 48.9977 45.8123C48.9977 46.4192 49.4894 46.9109 50.0963 46.9109H51.1949C52.0025 46.9109 52.6596 47.568 52.6596 48.3757C52.6596 49.1834 52.0025 49.8405 51.1949 49.8405H46.5682C45.9614 49.8405 45.4696 50.3322 45.4696 50.939C45.4696 51.5459 45.9614 52.0376 46.5682 52.0376H51.1949C53.2141 52.0376 54.8568 50.3949 54.8568 48.3757C54.8568 47.6401 54.638 46.955 54.2633 46.3805C55.3209 45.7376 56.0286 44.5744 56.0286 43.249C56.0286 42.5394 55.8252 41.8769 55.4745 41.3155C56.5908 40.6874 57.3469 39.4918 57.3469 38.1222C57.3469 37.2324 57.0276 36.4159 56.4979 35.7808C57.2856 35.1086 57.7864 34.1098 57.7864 32.9955C57.7864 30.9763 56.1436 29.3336 54.1244 29.3336H43.8741C43.5837 29.3336 43.4181 29.0314 43.4001 28.725L43.5679 20.9632C43.5968 19.6283 43.0986 18.3669 42.165 17.4122C41.2331 16.4592 39.9864 15.9336 38.6537 15.9326H38.5978C37.1936 15.9326 36.0497 17.0674 36.0346 18.4681L35.8152 23.3719C35.7059 25.8115 34.7926 28.1266 33.243 29.8909C32.7713 30.4281 31.4798 31.8983 30.248 32.3249C30.2417 30.6746 28.8976 29.3337 27.2458 29.3337H22.9979C21.3423 29.3336 19.9951 30.6806 19.9951 32.3364Z" fill="#F5FAFF"/>
</svg>
