<svg width="26" height="26" viewBox="0 0 26 26" fill="none" xmlns="http://www.w3.org/2000/svg">
<path d="M12.8516 25.8918C19.7551 25.8918 25.3516 20.2954 25.3516 13.3918C25.3516 6.48829 19.7551 0.891846 12.8516 0.891846C5.948 0.891846 0.351562 6.48829 0.351562 13.3918C0.351562 20.2954 5.948 25.8918 12.8516 25.8918Z" fill="#004A99"/>
<path d="M13.9112 12.5159L18.0551 7.69531H17.0742L13.4758 11.8812L10.6013 7.69531H7.28613L11.6346 14.0214L7.28613 19.0728H8.26704L12.07 14.6561L15.1072 19.0728H18.4223L13.9112 12.5107V12.5159ZM12.5631 14.0791L12.1225 13.4496L8.61849 8.43493H10.1292L12.9565 12.4792L13.3971 13.1087L17.0742 18.3699H15.5635L12.5631 14.0791Z" fill="white"/>
</svg>
