<svg width="75" height="75" viewBox="0 0 75 75" fill="none" xmlns="http://www.w3.org/2000/svg">
<path fill-rule="evenodd" clip-rule="evenodd" d="M32.1404 3.1803e-07C14.4106 -0.00247208 -9.82067e-07 14.4109 0 32.1404C-9.82067e-07 49.8699 14.4107 64.2823 32.1404 64.2807C38.8175 64.2802 45.2677 62.1166 50.6901 58.2666L65.8658 73.4423C67.9427 75.5192 71.3653 75.5192 73.4423 73.4423C75.5192 71.3653 75.5192 67.9427 73.4423 65.8658L58.2091 50.6326C60.7489 47.04 62.6513 43.0325 63.5519 38.7142C63.6083 38.4816 63.6174 38.24 63.5786 38.0038C63.5398 37.7676 63.4539 37.5416 63.3261 37.3392C63.1982 37.1368 63.0309 36.9623 62.8342 36.8258C62.6375 36.6894 62.4154 36.5939 62.1811 36.545C61.9468 36.4961 61.705 36.4949 61.4702 36.5413C61.2353 36.5877 61.0122 36.6809 60.8141 36.8153C60.616 36.9496 60.4469 37.1224 60.3169 37.3234C60.187 37.5245 60.0987 37.7495 60.0574 37.9853C59.1585 42.2962 57.2748 46.34 54.5542 49.8026C54.2843 50.146 54.1496 50.5765 54.1756 51.0125C54.2017 51.4486 54.3866 51.8599 54.6955 52.1688L70.9174 68.3907C71.6383 69.1117 71.6383 70.1964 70.9174 70.9174C70.1964 71.6383 69.1117 71.6383 68.3907 70.9174L52.188 54.7147C51.8788 54.4056 51.467 54.2206 51.0305 54.1949C50.5941 54.1692 50.1634 54.3045 49.82 54.5752C44.7821 58.5473 38.5552 60.709 32.1404 60.7096C16.3411 60.711 3.57115 47.9399 3.57115 32.1404C3.57115 16.3409 16.3412 3.56895 32.1404 3.57115C45.6714 3.57304 57.3255 13.0471 60.0958 26.2919C60.1387 26.5264 60.2281 26.7498 60.3588 26.9492C60.4894 27.1485 60.6587 27.3197 60.8565 27.4526C61.0544 27.5855 61.2768 27.6775 61.5107 27.7231C61.7447 27.7687 61.9854 27.767 62.2187 27.7181C62.4519 27.6692 62.6731 27.5741 62.869 27.4384C63.065 27.3027 63.2318 27.1292 63.3596 26.928C63.4874 26.7268 63.5737 26.5021 63.6133 26.2671C63.6529 26.0321 63.6451 25.7915 63.5902 25.5595C60.4782 10.6813 47.341 0.00212007 32.1404 3.1803e-07ZM32.1386 7.14231C30.1845 7.14347 28.2475 7.38975 26.3634 7.84677C26.1304 7.89696 25.9098 7.99328 25.7146 8.13006C25.5195 8.26683 25.3536 8.4413 25.2269 8.64317C25.1002 8.84503 25.0152 9.07022 24.9769 9.30546C24.9386 9.54069 24.9478 9.78122 25.0039 10.0129C25.06 10.2445 25.1619 10.4626 25.3036 10.6542C25.4453 10.8458 25.6239 11.0072 25.829 11.1287C26.034 11.2502 26.2613 11.3294 26.4974 11.3618C26.7335 11.3941 26.9738 11.3788 27.2039 11.3168C28.828 10.9228 30.4864 10.7144 32.1421 10.7135C43.9957 10.7062 53.5673 20.2855 53.5673 32.1404C53.5673 43.9953 43.9953 53.5673 32.1404 53.5673C20.2855 53.5673 10.7067 43.9958 10.7135 32.1421C10.7144 30.4858 10.9217 28.8277 11.315 27.2039C11.377 26.9738 11.3923 26.7335 11.36 26.4974C11.3277 26.2613 11.2485 26.034 11.1269 25.829C11.0054 25.6239 10.8441 25.4453 10.6524 25.3036C10.4608 25.1619 10.2427 25.06 10.0111 25.0039C9.77947 24.9478 9.53895 24.9386 9.30371 24.9769C9.06848 25.0152 8.84329 25.1002 8.64142 25.2269C8.43955 25.3536 8.26509 25.5195 8.12831 25.7146C7.99154 25.9098 7.89522 26.1304 7.84503 26.3634C7.38855 28.2479 7.14343 30.1852 7.14231 32.1386C7.13444 45.9248 18.3555 57.1384 32.1404 57.1384C45.9253 57.1384 57.1384 45.9253 57.1384 32.1404C57.1384 18.3555 45.9249 7.13386 32.1386 7.14231ZM62.4952 30.3548C62.2607 30.3548 62.0285 30.401 61.8119 30.4907C61.5952 30.5805 61.3984 30.712 61.2326 30.8778C61.0668 31.0436 60.9352 31.2404 60.8455 31.4571C60.7558 31.6737 60.7096 31.9059 60.7096 32.1404C60.7096 32.3749 60.7558 32.607 60.8455 32.8237C60.9352 33.0403 61.0668 33.2372 61.2326 33.403C61.3984 33.5688 61.5952 33.7003 61.8119 33.79C62.0285 33.8798 62.2607 33.926 62.4952 33.926C62.7297 33.926 62.9618 33.8798 63.1785 33.79C63.3951 33.7003 63.592 33.5688 63.7578 33.403C63.9236 33.2372 64.0551 33.0403 64.1448 32.8237C64.2346 32.607 64.2807 32.3749 64.2807 32.1404C64.2807 31.9059 64.2346 31.6737 64.1448 31.4571C64.0551 31.2404 63.9236 31.0436 63.7578 30.8778C63.592 30.712 63.3951 30.5805 63.1785 30.4907C62.9618 30.401 62.7297 30.3548 62.4952 30.3548Z" fill="#F5FAFF"/>
<path d="M24.0549 20.7968C24.438 20.6183 24.8487 20.5264 25.2634 20.5264C25.6781 20.5264 26.0887 20.6183 26.4718 20.7968C26.855 20.9753 27.2031 21.237 27.4963 21.5669C27.7896 21.8968 28.0222 22.2884 28.1809 22.7195C28.3396 23.1505 28.4213 23.6125 28.4213 24.079C28.4213 24.5455 28.3396 25.0075 28.1809 25.4385C28.0222 25.8696 27.7896 26.2612 27.4963 26.5911C27.2031 26.921 26.855 27.1827 26.4718 27.3612C26.0887 27.5397 25.6781 27.6316 25.2634 27.6316C24.8487 27.6316 24.438 27.5397 24.0549 27.3612C23.6718 27.1827 23.3236 26.921 23.0304 26.5911C22.7372 26.2612 22.5045 25.8696 22.3459 25.4385C22.1872 25.0075 22.1055 24.5455 22.1055 24.079C22.1055 23.6125 22.1872 23.1505 22.3459 22.7195C22.5045 22.2884 22.7372 21.8968 23.0304 21.5669C23.3236 21.237 23.6718 20.9753 24.0549 20.7968Z" fill="#F5FAFF"/>
</svg>
